<?xml version="1.0" encoding="UTF-8" standalone="no"?>
<svg xmlns="http://www.w3.org/2000/svg" width="1024" height="262" version="1.0">
  <g fill="#221e1f" transform="translate(-167.26602 -146.83574) scale(3.05942)">
    <path d="M56.150223 76.88937h8.8325v-2.865c0-16.9475 7.28-24.22875 22.5575-24.22875 4.03875 0 8.77625.72625 12.59125 2.60875 0 0 6.60875 9.38125 7.06 9.48625.0275.33625.04125.68125.04125 1.035 0 4.535-3.58 9.19-8.235 9.19-4.535 0-8.355-3.10375-8.355-7.8775 0-3.10375 1.91-5.37125 4.77375-5.72875v-.23875c-1.43125-.23875-2.86375-.5975-4.415-.5975-5.61 0-6.20625 4.89375-6.20625 9.7875v9.42875h10.025v9.54875h-10.025v30.19625c0 3.34125.835 5.13125 4.29625 5.13125h13.36625v9.54875h-46.90375v-9.54875h5.13125c3.46125 0 4.2975-1.79 4.2975-5.13125V86.43812h-8.8325v-9.54875"/>
    <path d="M107.19147 61.89187c-.45125-.10625-.97125-.16-1.57-.16h-5.49v-9.3275c3.79875 1.875 6.68375 4.895 7.06 9.4875m29.11-9.705v64.45c0 3.3425.835 5.1325 4.29625 5.1325h9.5625c.38875 5.48875 3.44625 8.41125 4.74625 9.545l-48.51625.00375v-9.54875h5.8025c3.46125 0 4.29625-1.79 4.29625-5.1325v-49.77c0-2.76375-.1925-5.325-6.31875-5.53375 0-5.325-.09875-9.14625-.09875-9.14625h26.23"/>
    <path d="M215.66523 121.72812h5.03c1.755 5.29 3.49 7.34 6.4025 9.5475l-34.58625.00125v-9.19125h-.23875c-5.2525 7.63875-10.86125 10.98125-20.52875 10.98125-13.60625 0-18.1425-5.84875-18.1425-18.73875V90.09937c0-3.34125-.835-5.13125-4.29625-5.13125h-9.25v-9.54875h33.35875v35.20875c0 8.47375 0 11.69625 9.19 11.69625 5.49125 0 8.9525-5.13125 8.9525-10.145v-22.08c0-3.34125-.83625-5.13125-4.2975-5.13125h-5.25125v-9.54875h29.325l.03625 41.17625c0 3.3425.835 5.1325 4.29625 5.1325m16.05499-68.5h11.81625v22.2h14.68v9.5475h-14.68v32.8225c0 2.50625 1.3125 4.535 4.0575 4.535 4.535 0 5.72875-3.2225 5.72875-8.7125v-1.79125h6.1975c.54125 3.79 1.44375 5.675 2.91875 8.205-1.57125 8.455-7.5375 13.04-19.61875 13.04-9.6675 0-15.93875-3.69-18.1775-11.18625-.62375-2.15125-.91875-4.41875-.91875-6.955v-29.9575h-7.675v-9.5475h-.3225c11.93625 0 15.03875-12.29375 15.99375-22.2m87.32375 22.23375h28.13125v9.54875h.23875c2.3875-5.73 6.9225-11.33875 13.96375-11.33875 7.4 0 13.60625 5.72875 13.60625 13.60625 0 5.13125-3.93875 10.62125-9.5475 10.62125-5.01375 0-9.54875-2.38625-9.54875-7.87625 0-4.05875 2.2675-6.565 6.20625-7.28125-1.19375-1.1925-2.2675-1.3125-3.81875-1.3125-6.20625 0-10.265 7.99625-10.265 13.845v21.36375c0 3.3425.83625 5.1325 4.2975 5.1325h5.1475l.01 9.5475-43.2325-.01125c-.0075-.58125 0-2.06375 0-3.21625 2.24-1.61875 3.6875-2.69375 5.56375-6.31375l4.105-.00625c3.46125 0 4.29625-1.79 4.29625-5.1325V90.14187c0-3.34125-.835-5.13125-4.29625-5.13125h-4.8575v-9.54875m47.8925 46.38125c0-5.96 4.83125-10.79125 10.79125-10.79125s10.79125 4.83125 10.79125 10.79125-4.83125 10.79125-10.79125 10.79125-10.79125-4.83125-10.79125-10.79125"/>
    <path d="M322.06522 105.38812h-39.38625c0 8.355 1.91 16.71 11.935 16.71 4.1775 0 10.98-3.22375 12.055-10.265h13.845c-1.91 14.3225-15.87375 20.52875-28.76375 20.52875-13.18625 0-21.93875-4.7325-26.4825-13.04-5.945-11.775-3.14375-23.12375-3.14375-23.12375 2.695-14.6275 14.64375-23.28 29.62625-23.27375 23.4225.01 29.9925 20.7775 30.315 32.46375zm-39.1475-9.5475h18.0225v-3.10375c0-6.0875-3.2225-10.26375-8.95125-10.26375-5.84875 0-9.07125 4.17625-9.07125 10.26375v3.10375"/>
  </g>
</svg>